<svg id="flat" height="512" viewBox="0 0 512 512" width="512" xmlns="http://www.w3.org/2000/svg">
  <path
    d="m426.083 488h-340.166a21.918 21.918 0 0 1 -21.917-21.917v-362.083l72-80h290.083a21.918 21.918 0 0 1 21.917 21.917v420.166a21.918 21.918 0 0 1 -21.917 21.917z"
    fill="#ffedd4"/>
  <path
    d="m117.917 464a21.918 21.918 0 0 1 -21.917-21.917l.1-373.748-32.1 35.665v362.083a21.918 21.918 0 0 0 21.917 21.917h340.166a21.918 21.918 0 0 0 21.917-21.917v-2.083z"
    fill="#f9d59b"/>
  <path d="m136 24v40.035a39.965 39.965 0 0 1 -39.965 39.965h-32.035z" fill="#e2a23b"/>
  <path d="m352 56h64v96h-64z" fill="#dceaef"/>
  <path d="m152 232h-32a8 8 0 0 1 -8-8v-32a8 8 0 0 1 8-8h32a8 8 0 0 1 8 8v32a8 8 0 0 1 -8 8zm-24-16h16v-16h-16z"
        fill="#2e4859"/>
  <path d="m152 304h-32a8 8 0 0 1 -8-8v-32a8 8 0 0 1 8-8h32a8 8 0 0 1 8 8v32a8 8 0 0 1 -8 8zm-24-16h16v-16h-16z"
        fill="#2e4859"/>
  <path d="m152 376h-32a8 8 0 0 1 -8-8v-32a8 8 0 0 1 8-8h32a8 8 0 0 1 8 8v32a8 8 0 0 1 -8 8zm-24-16h16v-16h-16z"
        fill="#2e4859"/>
  <path d="m152 448h-32a8 8 0 0 1 -8-8v-32a8 8 0 0 1 8-8h32a8 8 0 0 1 8 8v32a8 8 0 0 1 -8 8zm-24-16h16v-16h-16z"
        fill="#2e4859"/>
  <path
    d="m368 304a7.976 7.976 0 0 1 -5.657-2.343l-16-16 11.314-11.314 10.343 10.344 34.343-34.344 11.314 11.314-40 40a7.976 7.976 0 0 1 -5.657 2.343z"
    fill="#74a2b7"/>
  <path
    d="m368 368a7.976 7.976 0 0 1 -5.657-2.343l-16-16 11.314-11.314 10.343 10.344 34.343-34.344 11.314 11.314-40 40a7.976 7.976 0 0 1 -5.657 2.343z"
    fill="#74a2b7"/>
  <path
    d="m405.657 197.657-11.314-11.314-14.343 14.343-14.343-14.343-11.314 11.314 14.343 14.343-14.343 14.343 11.314 11.314 14.343-14.343 14.343 14.343 11.314-11.314-14.343-14.343z"
    fill="#d32668"/>
  <path
    d="m394.343 394.343-14.343 14.343-14.343-14.343-11.314 11.314 14.343 14.343-14.343 14.343 11.314 11.314 14.343-14.343 14.343 14.343 11.314-11.314-14.343-14.343 14.343-14.343z"
    fill="#d32668"/>
  <g fill="#2e4859">
    <path d="m184 184h136v16h-136z"/>
    <path d="m184 216h72v16h-72z"/>
    <path d="m272 216h16v16h-16z"/>
    <path d="m184 256h112v16h-112z"/>
    <path d="m184 288h88v16h-88z"/>
    <path d="m184 328h48v16h-48z"/>
    <path d="m248 328h64v16h-64z"/>
    <path d="m184 360h72v16h-72z"/>
    <path d="m184 400h120v16h-120z"/>
    <path d="m184 432h16v16h-16z"/>
    <path d="m216 432h64v16h-64z"/>
    <path
      d="m407.744 48h-47.488a16.274 16.274 0 0 0 -16.256 16.256v79.488a16.274 16.274 0 0 0 16.256 16.256h47.488a16.274 16.274 0 0 0 16.256-16.256v-79.488a16.274 16.274 0 0 0 -16.256-16.256zm-47.488 16h47.488a.256.256 0 0 1 .256.256v23.744h-48v-23.744a.256.256 0 0 1 .256-.256zm47.488 80h-47.488a.256.256 0 0 1 -.256-.256v-39.744h48v39.744a.256.256 0 0 1 -.256.256z"/>
    <path d="m184 112h88v16h-88z"/>
    <path d="m288 112h16v16h-16z"/>
  </g>
  <rect fill="#dceaef" height="32" rx="9.228" width="144" x="168" y="56"/>
</svg>
