<svg id="BACKGROUND" xmlns="http://www.w3.org/2000/svg" xmlns:xlink="http://www.w3.org/1999/xlink" viewBox="0 0 901.98 805.68"><defs><linearGradient id="Degradado_sin_nombre_20" x1="307.1" y1="299.73" x2="548.73" y2="299.73" gradientUnits="userSpaceOnUse"><stop offset="0" stop-color="#ae00ff"/><stop offset="0.09" stop-color="#a709fd"/><stop offset="0.24" stop-color="#9523f8"/><stop offset="0.43" stop-color="#764df0"/><stop offset="0.65" stop-color="#4c87e5"/><stop offset="0.9" stop-color="#17d0d6"/><stop offset="1" stop-color="#00f0d0"/></linearGradient></defs><path d="M455.8,292.72c.06,16.83,17.37,26.91,32.67,18.63,5.76-3.12,10.92-6.08,16.85-1.14,5.43,4.52,4.17,10.36,2.62,16-6.27,23.05-13,46-18.75,69.17-1.86,7.52-4.57,7.94-11.23,5.94-18.36-5.51-37-10.17-55.5-15.16-5.81-1.56-11.61-2.49-15.93,3.1s-1.94,10.52,1.18,15.95c6.54,11.37,3.12,24-7.48,30.22a21.84,21.84,0,0,1-29.52-7.37c-6.74-11-3.51-23.86,8.4-30.73,5.45-3.13,10.06-6.31,9-13.2s-6.32-8.92-12.31-10.5c-20.3-5.35-40.48-11.12-60.77-16.46-5-1.33-8.18-2.59-7.91-9.13C309.87,282,347.23,190,446,166.35a188.62,188.62,0,0,1,95.71,1.76c5.35,1.48,8.54,2.55,6.37,10.1-9.71,33.72-18.43,67.72-27.53,101.61-1.58,5.86-3.92,11.19-11,11.77-6.37.53-9.55-3.48-12.47-8.6-6-10.5-15.32-14.32-25.52-11.24C461.8,274.7,455.76,282.75,455.8,292.72Z" transform="translate(-101.54 -161.03)" style="fill:url(#Degradado_sin_nombre_20)"/><path d="M586.61,681.37c-2.42,3.39-4.63.35-6.47-.54q-99.24-48.37-198.36-97a51.11,51.11,0,0,1-4.34-2.79c7.94-8.74,15.7-17.18,21.24-27.23,16.38-29.74,16-60.38,4.27-91.35-3.49-9.25-2.27-12.34,8.56-11.85,19.92.9,39.91.3,59.88.18,6.2,0,11.8,1,14.36,7.39,2.35,5.9-.51,10.13-4.69,14.39-10,10.15-10.18,22.9-1.14,31.82a21.86,21.86,0,0,0,30.41.28c9.23-8.9,9.14-21.55-.55-31.83-3.91-4.15-7.55-8.21-5.11-14.3,2.75-6.9,8.65-7.75,15.26-7.73,22.14.07,44.27-.16,66.41-.27l1.43,1.26c2.5,4.34,2,9.14,2,13.82.08,21.4,0,42.81,0,64.21a91.24,91.24,0,0,0,.2,9.79c1.2,11,6.18,13.5,14.92,7,6-4.5,12.25-7.61,19.95-7.25,10.4.48,19.18,6.77,22.34,16.19a24.89,24.89,0,0,1-7.17,26.77q-12.19,10.45-27.27,2.39c-21.8-11.68-23-11-23,14.42q0,31.58,0,63.13C589.85,668.84,589.37,675.29,586.61,681.37Z" transform="translate(-101.54 -161.03)" style="fill:#ae00ff"/><path d="M586.34,450.54c0-26.47-.11-52.94,0-79.41,0-6.57-.71-12.65-7.42-15.47-6.35-2.67-10.64,1-15.09,5.45-9.36,9.31-22.37,9.23-31,.52-9-9-8.93-22.16.08-31.07,8.68-8.59,21.81-8.56,31.08.77,4.44,4.48,8.76,8,15.09,5.29,6.69-2.92,7.31-9,7.28-15.57-.14-33.72.11-67.45-.24-101.16-.08-7.8,1.05-10.52,10.09-9.44,40.1,4.79,74.94,20.88,105.75,46.46,9.49,5.33,17.14,12.42,21.52,22.61a1.05,1.05,0,0,0,.79,1.2,6.44,6.44,0,0,1,3.77,4.88c20.47,31.1,32.72,64.9,33.71,102.43.35,13.2-.32,25.67-10.39,36.24-8.4,8.81.36,17.56,2.23,26.27-2.27,2.81-5.52,3.32-8.77,3.38-20.52.37-41.05.71-61.56-.12-11.54-.47-15.14-4.87-16.23-17.09.44-3.13,2.17-5.6,4.11-8a79.37,79.37,0,0,0,7.28-10.17,14.51,14.51,0,0,0-1.15-14.23c-4.95-7.5-12-10.31-20.61-8.75-12.52,2.27-18.12,15.72-11.35,26.95,2.24,3.7,5.55,6.7,7.28,10.75,3.44,8.07.82,17.34-7.18,18.53-19.51,2.9-39.28,4.48-58.79-.86Z" transform="translate(-101.54 -161.03)" style="fill:#00f0d0"/><path d="M586.64,451c16.66,0,33.32-.22,50-.05,6.19.06,11.85-.71,14.53-7s-.77-11-5.32-15.16c-7.15-6.6-8.93-14.8-5.42-23.74,3.33-8.45,9.76-13.43,19.08-13.66,9.92-.24,17.6,3.37,20.92,13.52-.58,5.23,2.66,10.46.06,15.7L674,429.51c-3.7-.47-4.33,1.77-4.15,4.72-.63,13.17,2.2,16.57,14.65,16.59,23,0,46.07-.17,69.1-.28,7.24,14.65,13.8,29.6,17.68,45.49,4.46,18.23,0,24.54-17.89,29.65-13.66,3.91-22.42,9.89-17.92,24.27.21.68.07,1.47.3,2.15,3.24,9.38-11.37,8.27-9.61,15.15,2,7.81,1.44,12.64-5.88,17.16-7.7,4.75-12,12.13-12.07,21.84a68.47,68.47,0,0,1-2.42,16.09c-4.72,19.08-18.45,27.78-37.55,23.56-11-2.42-21.8-5.4-32.55-8.6-10.39-3.1-18.56-.62-24.69,8.3q-12.25,17.85-24.4,35.77-.09-46.75-.21-93.52c0-6,0-12.16,6.63-14.66,6.06-2.29,10.79.54,15.44,5,10.48,10,23,9.72,31.71.11a22.12,22.12,0,0,0-.79-30.45c-8.34-8.25-22-8.08-31.29.62-4,3.73-7.51,8.45-13.91,5.81-6.76-2.79-7.89-8.51-7.84-15.2C586.6,509.69,586.57,480.33,586.64,451Z" transform="translate(-101.54 -161.03)" style="fill:#09909f"/><text transform="translate(0 643.12)" style="font-size:114.34593200683594px;fill:#1a0255;font-family:ArialNarrow, Arial Narrow">Gabinete Pedagógico</text><path d="M484.6,891.18c-4.07,0-3.54-3.38-6.67-3.38a3.39,3.39,0,0,0-3.39,3.38V903.8a4.19,4.19,0,0,0,4.18,4.18h12.61a3.38,3.38,0,0,1,3.39,3.38c0,3.15-3.39,2.58-3.39,6.67a5,5,0,1,0,10.06,0c0-4.07-3.38-3.53-3.38-6.67a3.38,3.38,0,0,1,3.38-3.38H514a4.19,4.19,0,0,0,4.18-4.18V891.18a3.38,3.38,0,0,0-3.38-3.38c-3.16,0-2.58,3.38-6.68,3.38a5,5,0,0,1,0-10c4.08,0,3.54,3.38,6.68,3.38a3.38,3.38,0,0,0,3.38-3.38V868.51a4.19,4.19,0,0,0-4.18-4.17H501.39A3.38,3.38,0,0,1,498,861c0-3.15,3.38-2.58,3.38-6.67a5,5,0,1,0-10.06,0c0,4.07,3.39,3.53,3.39,6.67a3.39,3.39,0,0,1-3.39,3.39H478.72a4.19,4.19,0,0,0-4.18,4.17v12.62a3.38,3.38,0,0,0,3.39,3.38c3.15,0,2.58-3.38,6.67-3.38a5,5,0,1,1,0,10Z" transform="translate(-101.54 -161.03)" style="fill:#4f7bac"/><path d="M464.48,934.83c4.07,0,3.53-3.39,6.67-3.39a3.39,3.39,0,0,1,3.39,3.39v12.61a4.19,4.19,0,0,0,4.17,4.18h12.62a3.38,3.38,0,0,0,3.38-3.39c0-3.15-3.38-2.58-3.38-6.67a5,5,0,1,1,10.06,0c0,4.07-3.39,3.54-3.39,6.67a3.39,3.39,0,0,0,3.38,3.39H514a4.19,4.19,0,0,0,4.18-4.18V934.83a3.38,3.38,0,0,1,3.38-3.39c3.15,0,2.58,3.39,6.67,3.39a5,5,0,0,0,0-10.06c-4.07,0-3.53,3.38-6.67,3.38a3.38,3.38,0,0,1-3.38-3.38V912.15A4.19,4.19,0,0,0,514,908H501.38a3.38,3.38,0,0,0-3.38,3.38c0,3.15,3.39,2.58,3.39,6.67a5,5,0,1,1-10.06,0c0-4.07,3.38-3.53,3.38-6.67a3.38,3.38,0,0,0-3.38-3.38H478.71a4.19,4.19,0,0,0-4.17,4.17v12.62a3.38,3.38,0,0,1-3.39,3.38c-3.15,0-2.58-3.38-6.67-3.38a5,5,0,0,0,0,10.06Z" transform="translate(-101.54 -161.03)" style="fill:#7de314"/><path d="M571.88,891.18c-4.07,0-3.53-3.38-6.67-3.38a3.38,3.38,0,0,0-3.39,3.38V903.8A4.19,4.19,0,0,0,566,908h12.61a3.38,3.38,0,0,1,3.39,3.38c0,3.13-3.39,2.68-3.39,6.67a5,5,0,0,0,10.06,0c0-4-3.38-3.55-3.38-6.67a3.38,3.38,0,0,1,3.38-3.38h12.62a4.19,4.19,0,0,0,4.17-4.18V891.18a3.38,3.38,0,0,0-3.38-3.38c-3.13,0-2.65,3.38-6.67,3.38a5,5,0,1,1,0-10c4,0,3.54,3.38,6.67,3.38a3.38,3.38,0,0,0,3.38-3.38V868.51a4.19,4.19,0,0,0-4.17-4.17H588.67a3.38,3.38,0,0,1-3.38-3.39c0-3.15,3.38-2.66,3.38-6.67a5,5,0,0,0-10.06,0c0,4,3.39,3.55,3.39,6.67a3.39,3.39,0,0,1-3.39,3.39H566a4.19,4.19,0,0,0-4.18,4.17v12.62a3.38,3.38,0,0,0,3.39,3.38c3.15,0,2.58-3.38,6.67-3.38a5,5,0,1,1,0,10Z" transform="translate(-101.54 -161.03)" style="fill:#5059ab"/><path d="M508.12,891.18c4.08,0,3.54-3.38,6.68-3.38a3.38,3.38,0,0,1,3.38,3.38V903.8a4.19,4.19,0,0,0,4.18,4.18H535a3.39,3.39,0,0,0,3.39-3.39c0-3.15-3.39-2.58-3.39-6.67a5,5,0,0,1,10.06,0c0,4.07-3.38,3.53-3.38,6.67A3.38,3.38,0,0,0,545,908h12.62a4.19,4.19,0,0,0,4.17-4.18V891.18a3.38,3.38,0,0,1,3.39-3.38c3.15,0,2.58,3.38,6.67,3.38a5,5,0,1,0,0-10c-4.07,0-3.53,3.38-6.67,3.38a3.38,3.38,0,0,1-3.39-3.38V868.51a4.19,4.19,0,0,0-4.17-4.17H545a3.38,3.38,0,0,0-3.38,3.38c0,3.15,3.38,2.58,3.38,6.67a5,5,0,0,1-10.06,0c0-4.07,3.39-3.53,3.39-6.67a3.38,3.38,0,0,0-3.39-3.38H522.36a4.19,4.19,0,0,0-4.18,4.17v12.62a3.38,3.38,0,0,1-3.38,3.38c-3.15,0-2.58-3.38-6.68-3.38a5,5,0,0,0,0,10Z" transform="translate(-101.54 -161.03)" style="fill:#09909f"/><path d="M528.24,934.83c-4.07,0-3.53-3.39-6.67-3.39a3.39,3.39,0,0,0-3.39,3.39v12.61a4.19,4.19,0,0,0,4.18,4.18H535a3.38,3.38,0,0,1,3.39,3.38c0,3.16-3.39,2.58-3.39,6.67a5,5,0,1,0,10.06,0c0-4.07-3.38-3.53-3.38-6.67a3.38,3.38,0,0,1,3.38-3.38h12.62a4.19,4.19,0,0,0,4.17-4.18V934.83a3.38,3.38,0,0,0-3.38-3.39c-3.15,0-2.58,3.39-6.67,3.39a5,5,0,1,1,0-10.06c4.07,0,3.53,3.38,6.67,3.38a3.38,3.38,0,0,0,3.38-3.38V912.15a4.19,4.19,0,0,0-4.17-4.17H545a3.38,3.38,0,0,1-3.38-3.39c0-3.15,3.38-2.58,3.38-6.67a5,5,0,0,0-10.06,0c0,4.07,3.39,3.53,3.39,6.67A3.39,3.39,0,0,1,535,908H522.36a4.19,4.19,0,0,0-4.18,4.17v12.62a3.38,3.38,0,0,0,3.39,3.38c3.15,0,2.58-3.38,6.67-3.38a5,5,0,0,1,0,10.06Z" transform="translate(-101.54 -161.03)" style="fill:#01cc9b"/><path d="M551.77,934.83c4.07,0,3.53-3.39,6.67-3.39a3.38,3.38,0,0,1,3.38,3.39v12.61a4.19,4.19,0,0,0,4.18,4.18h12.61a3.39,3.39,0,0,0,3.39-3.39c0-3.13-3.39-2.67-3.39-6.67a5,5,0,0,1,10.06,0c0,4-3.38,3.55-3.38,6.67a3.38,3.38,0,0,0,3.38,3.39h12.62a4.19,4.19,0,0,0,4.17-4.18V934.83a3.39,3.39,0,0,1,3.39-3.39c3.15,0,2.58,3.39,6.67,3.39a5,5,0,0,0,0-10.06c-4.07,0-3.53,3.38-6.67,3.38a3.38,3.38,0,0,1-3.39-3.38V912.15a4.19,4.19,0,0,0-4.17-4.17H588.67a3.38,3.38,0,0,0-3.38,3.38c0,3.15,3.38,2.66,3.38,6.67a5,5,0,0,1-10.06,0c0-4,3.39-3.54,3.39-6.67a3.38,3.38,0,0,0-3.39-3.38H566a4.19,4.19,0,0,0-4.18,4.17v12.62a3.38,3.38,0,0,1-3.38,3.38c-3.15,0-2.58-3.38-6.67-3.38a5,5,0,1,0,0,10.06Z" transform="translate(-101.54 -161.03)" style="fill:#14a0c0"/></svg>