<?xml version="1.0"?>
<svg xmlns="http://www.w3.org/2000/svg" id="flat" viewBox="0 0 512 512" width="512" height="512">
  <path d="M456,384l-32-96H88L56,384h0a71.556,71.556,0,0,1,0,64H456A71.556,71.556,0,0,1,456,384Z" style="fill:#f9d59b"/>
  <path
    d="M192.2,160H178.452a46.586,46.586,0,0,1-46.227-40.809l-1.379-11.034a25.048,25.048,0,0,1,7.143-20.82h0A25.049,25.049,0,0,1,155.7,80H214.95a25.049,25.049,0,0,1,17.713,7.337h0a25.048,25.048,0,0,1,7.143,20.82l-1.379,11.034A46.586,46.586,0,0,1,192.2,160Z"
    style="fill:#dceaef"/>
  <path
    d="M333.548,160H319.8a46.586,46.586,0,0,1-46.227-40.809l-1.379-11.034a25.048,25.048,0,0,1,7.143-20.82h0A25.049,25.049,0,0,1,297.05,80H356.3a25.049,25.049,0,0,1,17.713,7.337h0a25.048,25.048,0,0,1,7.143,20.82l-1.379,11.034A46.586,46.586,0,0,1,333.548,160Z"
    style="fill:#dceaef"/>
  <path
    d="M232.663,87.337A25.049,25.049,0,0,0,214.95,80H155.7a25.049,25.049,0,0,0-17.713,7.337h0a25.048,25.048,0,0,0-7.143,20.82l.48,3.843H180.3a25.049,25.049,0,0,1,17.713,7.337h0a25.048,25.048,0,0,1,7.143,20.82l-1.379,11.034a46.8,46.8,0,0,1-1.649,7.734,46.591,46.591,0,0,0,36.3-39.734l1.379-11.034A25.048,25.048,0,0,0,232.663,87.337Z"
    style="fill:#74a2b7"/>
  <path
    d="M374.011,87.337h0A25.049,25.049,0,0,0,356.3,80H297.05a25.049,25.049,0,0,0-24.856,28.157l.48,3.843h48.972A25.049,25.049,0,0,1,346.5,140.157l-1.379,11.034a46.693,46.693,0,0,1-1.649,7.734,46.591,46.591,0,0,0,36.3-39.734l1.379-11.034A25.048,25.048,0,0,0,374.011,87.337Z"
    style="fill:#74a2b7"/>
  <path
    d="M56,448h0a71.556,71.556,0,0,0,0-64h49.641A73.849,73.849,0,0,0,146.6,371.6l6.849-4.567a73.846,73.846,0,0,1,89.021,5.376L256,384l19.692-14.769a73.845,73.845,0,0,1,88.616,0h0A73.842,73.842,0,0,0,408.615,384H456a71.556,71.556,0,0,0,0,64H56Z"
    style="fill:#ffc866"/>
  <path
    d="M386.125,90.772,370.788,35.558a25.87,25.87,0,0,0-25.106-19.47h-.166a25.992,25.992,0,0,0-25.764,25.927V56h16V42.015a9.951,9.951,0,0,1,9.864-9.927h.064a9.906,9.906,0,0,1,9.622,7.491c.015.061.031.12.048.179L364.6,73.05A33.234,33.234,0,0,0,356.3,72H297.05a33.115,33.115,0,0,0-31.809,24H246.759A33.117,33.117,0,0,0,214.95,72H155.7a33.229,33.229,0,0,0-8.568,1.124L156.4,39.758c.017-.059.033-.118.048-.179a9.906,9.906,0,0,1,9.622-7.491h.064A9.951,9.951,0,0,1,176,42.015V56h16V42.015a25.991,25.991,0,0,0-25.764-25.927h-.166a25.872,25.872,0,0,0-25.106,19.47L125.219,92.241a32.918,32.918,0,0,0-2.312,16.908l1.379,11.035A54.673,54.673,0,0,0,178.452,168H192.2a54.673,54.673,0,0,0,54.166-47.815L247.389,112h17.222l1.024,8.184A54.673,54.673,0,0,0,319.8,168h13.747a54.673,54.673,0,0,0,54.166-47.816l1.379-11.035A32.884,32.884,0,0,0,386.125,90.772ZM231.868,107.164l-1.38,11.035A38.647,38.647,0,0,1,192.2,152H178.452a38.647,38.647,0,0,1-38.289-33.8l-1.379-11.034A17.05,17.05,0,0,1,155.7,88H214.95a17.05,17.05,0,0,1,16.918,19.164Zm141.348,0L371.837,118.2A38.647,38.647,0,0,1,333.548,152H319.8a38.647,38.647,0,0,1-38.289-33.8l-1.38-11.033A17.049,17.049,0,0,1,297.05,88H356.3a16.935,16.935,0,0,1,12.056,4.994,17.175,17.175,0,0,1,2.811,3.7l.127.457.106-.029A16.953,16.953,0,0,1,373.216,107.165Z"
    style="fill:#48687a"/>
  <path
    d="M432,256l-12.613,3.364A269.564,269.564,0,0,0,256,384h0A269.564,269.564,0,0,0,92.613,259.364L80,256l24-80,26.952,6.22a186.1,186.1,0,0,1,117.731,85.585L256,280h0a186.1,186.1,0,0,1,127.457-98.741L408,176Z"
    style="fill:#ffedd4"/>
  <path
    d="M40,480H198.059A81.941,81.941,0,0,0,256,456h0a81.941,81.941,0,0,0,57.941,24H472a16,16,0,0,0,16-16h0a16,16,0,0,0-16-16H329.941A81.941,81.941,0,0,1,272,424l-16-16-16,16a81.941,81.941,0,0,1-57.941,24H40a16,16,0,0,0-16,16h0A16,16,0,0,0,40,480Z"
    style="fill:#a5662d"/>
</svg>
