<svg id="flat" height="512" viewBox="0 0 512 512" width="512" xmlns="http://www.w3.org/2000/svg">
  <path
    d="m128 139.189 50.319-90.565a47.876 47.876 0 0 1 41.85-24.624 47.876 47.876 0 0 1 33.854 14.023l1.977 1.977 1.977-1.977a47.876 47.876 0 0 1 33.854-14.023 47.876 47.876 0 0 1 41.85 24.624l50.319 90.565z"
    fill="#f9d59b"/>
  <path
    d="m210.058 25.094a47.868 47.868 0 0 0 -31.739 23.53l-50.319 90.565h256l-13.334-24h-107.6c-46.239 0-75.466-49.675-53.008-90.095z"
    fill="#ffc866"/>
  <ellipse cx="256" cy="200" fill="#e2a23b" rx="208" ry="128"/>
  <path
    d="m96 240-6.367 31.834a118.587 118.587 0 0 1 -50.5 75.413 7.024 7.024 0 0 0 -1.07 10.812 115.882 115.882 0 0 0 81.937 33.941h272a115.882 115.882 0 0 0 81.941-33.941 7.024 7.024 0 0 0 -1.07-10.812 118.587 118.587 0 0 1 -50.5-75.413l-6.371-31.834z"
    fill="#6f8b7b"/>
  <path d="m120 488v-100.186a27.814 27.814 0 0 1 27.814-27.814h216.372a27.814 27.814 0 0 1 27.814 27.814v100.186"
        fill="#a5662d"/>
  <path
    d="m364.186 360h-216.372a27.812 27.812 0 0 0 -27.784 26.619 27.7 27.7 0 0 1 11.784-2.619h216.372a27.814 27.814 0 0 1 27.814 27.814v76.186h16v-100.186a27.814 27.814 0 0 0 -27.814-27.814z"
    fill="#ba763e"/>
  <path d="m392 488c0-75.111-60.889-144-136-144-75.111 0-136 68.889-136 144z" fill="#dceaef"/>
  <path
    d="m264 344.271c-2.648-.173-5.313-.271-8-.271-75.111 0-136 68.889-136 144h16c0-72.424 56.614-139.054 128-143.729z"
    fill="#b9bec1"/>
  <path d="m208 400 24 40 24-32 24 32 24-40v-16h-96z" fill="#74a2b7"/>
  <path d="m328 488h-144v-128a147.307 147.307 0 0 0 136.826 127.552z" fill="#d1d8db"/>
  <path d="m168 360h32v128h-32z" fill="#ba763e"/>
  <path d="m312 360h32v128h-32z" fill="#ba763e"/>
  <path
    d="m405.082 178.9c-23.282-29.8-81.252-50.9-149.082-50.9s-125.8 21.1-149.082 50.9a174.971 174.971 0 0 0 -10.918 61.1c0 92.784 71.634 168 160 168s160-75.216 160-168a174.971 174.971 0 0 0 -10.918-61.1z"
    fill="#ffe7e1"/>
  <path d="m200 200v28a12 12 0 0 0 12 12 12 12 0 0 0 12-12v-28z" fill="#2e4859"/>
  <path d="m288 200v28a12 12 0 0 0 12 12 12 12 0 0 0 12-12v-28z" fill="#2e4859"/>
  <path d="m179.562 261.923a35.176 35.176 0 0 0 -39.125 0l-8.875-13.313a51.13 51.13 0 0 1 56.875 0z" fill="#f4d2cb"/>
  <path d="m371.562 262.656a35.174 35.174 0 0 0 -39.124 0l-8.876-13.312a51.128 51.128 0 0 1 56.876 0z" fill="#f4d2cb"/>
  <path
    d="m384 160a67.882 67.882 0 0 1 -96 0l-32-32-32 32a67.882 67.882 0 0 1 -96 0v-.006c29.189-19.428 75.659-31.994 128-31.994s98.811 12.566 128 31.994z"
    fill="#6f8b7b"/>
  <path
    d="m106.932 178.879a174.942 174.942 0 0 0 -10.932 61.121c0 92.784 71.634 168 160 168 46.743 0 88.8-21.05 118.053-54.61-27.698 24.11-63.262 38.61-102.053 38.61-88.366 0-160-75.216-160-168a174.958 174.958 0 0 1 10.574-60.147 83.693 83.693 0 0 0 -15.642 15.026z"
    fill="#f4d2cb"/>
</svg>
