<svg id="flat" height="512" viewBox="0 0 512 512" width="512" xmlns="http://www.w3.org/2000/svg">
  <path d="m400 488c0-75.111-62.68-144-140-144-77.32 0-140 68.889-140 144z" fill="#d1d8db"/>
  <path
    d="m184 472c0-53.215 31.468-103.3 77.309-127.982-.437 0-.871-.018-1.309-.018-77.32 0-140 68.889-140 144h280a136.466 136.466 0 0 0 -.956-16z"
    fill="#b9bec1"/>
  <path d="m368.62 386h96.093v16h-96.093z" fill="#516b5b" transform="matrix(.486 -.874 .874 .486 -130.106 566.879)"/>
  <path d="m200.355 393.955 55.645 70.045 55.643-70.045z" fill="#ffe7e1"/>
  <path
    d="m256 472a8 8 0 0 1 -6.264-3.024l-62.193-78.288 12.527-9.952 55.93 70.4 55.928-70.4 12.527 9.952-62.191 78.288a8 8 0 0 1 -6.264 3.024z"
    fill="#6f8b7b"/>
  <path
    d="m420 300a95.6 95.6 0 0 1 -67.6 28h-192.8a95.6 95.6 0 0 1 -67.6-28 95.6 95.6 0 0 1 -28-67.6v-16.4c0-106.039 85.961-192 192-192 106.039 0 192 85.961 192 192v16.4a95.6 95.6 0 0 1 -28 67.6z"
    fill="#2e4859"/>
  <path
    d="m256 24a191.516 191.516 0 0 0 -143.521 64.48 191.266 191.266 0 0 1 127.521-48.48c106.039 0 192 85.961 192 192v16.4a95.6 95.6 0 0 1 -20.478 59.12 95.541 95.541 0 0 0 8.478-7.52 95.6 95.6 0 0 0 28-67.6v-16.4c0-106.039-85.961-192-192-192z"
    fill="#48687a"/>
  <ellipse cx="256" cy="240" fill="#ffe7e1" rx="160" ry="168"/>
  <g fill="#f4d2cb">
    <path
      d="m280 384c-88.365 0-160-75.216-160-168a172.341 172.341 0 0 1 38.266-109.011c-37.866 30.724-62.266 78.873-62.266 133.011 0 92.784 71.635 168 160 168 48.743 0 92.388-22.893 121.734-58.989a154.494 154.494 0 0 1 -97.734 34.989z"/>
    <path d="m163.562 301.923a35.174 35.174 0 0 0 -39.124 0l-8.876-13.313a51.132 51.132 0 0 1 56.876 0z"/>
    <path d="m387.562 301.923a35.174 35.174 0 0 0 -39.124 0l-8.876-13.313a51.132 51.132 0 0 1 56.876 0z"/>
  </g>
  <path d="m48 336v96l56 56h80v-96h-80z" fill="#ba763e"/>
  <path d="m104 392-56-56v96l56 56z" fill="#a5662d"/>
  <rect fill="#ffe7e1" height="64" rx="16.29" width="64" x="360" y="424"/>
  <path
    d="m423.71 472h-31.42a16.29 16.29 0 0 1 -16.29-16.29v-31.42c0-.093.012-.183.014-.276a16.282 16.282 0 0 0 -16.014 16.276v31.42a16.29 16.29 0 0 0 16.29 16.29h31.42a16.283 16.283 0 0 0 16.276-16.014c-.093.002-.186.014-.276.014z"
    fill="#f4d2cb"/>
  <path d="m176.937 241.337-80.548-12.98c-.251 3.848-.389 7.728-.389 11.643q0 2.262.059 4.51l78.333 12.623z"
        fill="#e2a23b"/>
  <path d="m337.894 257.127 78.056-12.994q.05-2.061.05-4.133c0-4.045-.145-8.054-.412-12.027l-80.321 13.371z"
        fill="#e2a23b"/>
  <path d="m384 184h-64l-32-56v56h-72v-56l-32 56h-56a128 128 0 0 1 128-128 128 128 0 0 1 128 128z" fill="#2e4859"/>
  <path d="m240 240h32v16h-32z" fill="#e2a23b"/>
  <path d="m256 368a40.045 40.045 0 0 1 -40-40h16a24 24 0 0 0 48 0h16a40.045 40.045 0 0 1 -40 40z" fill="#e54a85"/>
  <rect fill="#74a2b7" height="64" rx="12.847" width="80" x="168" y="216"/>
  <path d="m180.847 216h54.306a12.847 12.847 0 0 1 12.847 12.847v38.306z" fill="#dceaef"/>
  <rect fill="#74a2b7" height="64" rx="12.847" width="80" x="264" y="216"/>
  <path d="m276.847 216h54.306a12.847 12.847 0 0 1 12.847 12.847v38.306z" fill="#dceaef"/>
</svg>
